<?xml version="1.0" encoding="utf-8"?>
<!-- Generator: Adobe Illustrator 19.0.0, SVG Export Plug-In . SVG Version: 6.00 Build 0)  -->
<svg version="1.1" id="Layer_1" xmlns="http://www.w3.org/2000/svg" xmlns:xlink="http://www.w3.org/1999/xlink" x="0px" y="0px"
	 width="7062.2px" height="4428.2px" viewBox="176 279.1 7062.2 4428.2" style="enable-background:new 176 279.1 7062.2 4428.2;"
	 xml:space="preserve">
<style type="text/css">
	.st0{fill:#FF0000;}
</style>
<g id="XMLID_3_">
	<g id="XMLID_24_">
		<path id="XMLID_26_" class="st0" d="M6440,1338.8h-611.9l199.1-543.9c38-103.5,72.9-208.9,100.5-312.4h2.5
			c30,103.5,68,206.4,106,312.4L6440,1338.8z M5755.2,1535.5h760.2l204,543.9h264.6L6263.6,279.1H6002l-695.3,1800.3h249.3
			L5755.2,1535.5z M4800.8,488c226.6,0,370,95.6,370,322.2s-118.2,329.6-410.4,329.6h-465.5V488H4800.8z M4055.9,279.1v1800.3h238.9
			v-732.6h506c417.8,0,614.4-201.5,614.4-541.5c0-261.6-143.3-526.2-616.8-526.2H4055.9z M2285.6,279.1v1800.3h238.9v-783.5h435.5
			c246.9,0,365.1,136,410.4,374.9c30,153.8,95.6,335.1,170.9,408h274.4c-103.5-120.7-163.6-310-216.2-483.3
			c-40.4-131.1-98-281.8-238.9-340l-68-27.6c267.1-40.4,410.4-216.2,410.4-460.6c0-292.2-191.1-488.2-601.5-488.2H2285.6z
			 M2525.2,1092.6V480.6h581.3c246.9,0,352.2,113.3,352.2,299.5c0,216.2-133.5,312.4-408,312.4H2525.2z M1563.4,1338.8H951.5
			l199.1-543.9c38-103.5,72.9-208.9,100.5-312.4h2.5c30,103.5,68,206.4,106,312.4L1563.4,1338.8z M878.6,1535.5h760.2l204,543.9
			h264.6L1387,279.1h-261.6L430.2,2079.4h249.3L878.6,1535.5z"/>
	</g>
	<path id="XMLID_4_" class="st0" d="M6223.2,4022.4c0-329.6,170.9-498.6,392.6-498.6c221.7,0,395.1,174,395.1,493.7
		c0,329.6-170.9,498.6-395.1,498.6C6394.7,4516.2,6223.2,4345.2,6223.2,4022.4 M6616.4,4702.4c445.3,0,621.7-344.9,621.7-689.7
		c0-355.3-199.1-672-621.7-672c-476,0-621.7,390.2-621.7,682.4C5994.1,4425.5,6223.2,4702.4,6616.4,4702.4 M5518.7,4672.4H5738
		V3368.2h-219.3V4672.4z M5518.7,3128.7H5738V2872h-219.3V3128.7z M4211.5,4027.9c0-299.5,123.1-503.5,367.5-503.5
		c251.8,0,385.3,196.6,385.3,508.4c0,279.3-133.5,483.3-372.4,483.3C4357.9,4516.2,4211.5,4319.5,4211.5,4027.9 M4544.1,3340.7
		c-344.9,0-558.7,294.6-558.7,682.4c0,385.3,224.2,679.9,578.9,679.9c170.9,0,312.4-60.6,390.2-199.1h2.5v168.5h211.3V2872H4949
		v659.7h-2.5C4863.9,3400.7,4702.8,3340.7,4544.1,3340.7 M3134,4513.7c-151.3,0-244.4-85.8-259.1-224.2
		c-4.9-50.2-7.4-118.2-7.4-206.4v-714.9h-216.8v833.1c0,85.8,4.9,151.3,17.8,199.1c47.8,178.9,176.4,302,428.2,302
		c183.8,0,324.7-75.3,420.2-229.1h2.5v199.1h199.1V3368.2h-219.3v717.3C3499.1,4322.6,3388.2,4513.7,3134,4513.7 M1953.6,3015.4
		v352.2h-191.1v181.3h191.1v808c0,249.3,125.6,324.7,312.4,324.7c50.2,0,103.5-4.9,163.6-12.9l-17.8-187.4
		c-38,2.5-72.9,4.9-103.5,4.9c-100.5,0-138.4-42.9-138.4-140.9v-795.7h242v-181.3h-242v-433.1L1953.6,3015.4z M1550.6,3390.9
		c-12.9-362.6-276.9-553.8-675-553.8c-349.8,0-639.5,191.1-639.5,503.5c0,221.7,153.8,340,322.2,405.5
		c176.4,68,493.7,133.5,626.6,191.1c131.1,55.1,193.6,128.6,193.6,249.3c0,213.8-201.5,319.8-450.8,319.8
		c-204,0-506-83.3-528.6-428.2l-223,9.8c7.4,393.3,304.4,619.3,755.3,619.3c365.1,0,684.8-201.5,684.8-533.5
		c0-231.5-123.1-372.4-335.1-450.8c-131.1-50.2-463.1-123.1-624.2-186.2c-90.7-35.5-183.8-95.6-183.8-206.4
		c0-193.6,168.5-302,405.5-302c256.7,0,425.7,128.6,440.4,370L1550.6,3390.9z M6223.2,4022.4c0-329.6,170.9-498.6,392.6-498.6
		c221.7,0,395.1,174,395.1,493.7c0,329.6-170.9,498.6-395.1,498.6C6394.7,4516.2,6223.2,4345.2,6223.2,4022.4 M6616.4,4702.4
		c445.3,0,621.7-344.9,621.7-689.7c0-355.3-199.1-672-621.7-672c-476,0-621.7,390.2-621.7,682.4
		C5994.1,4425.5,6223.2,4702.4,6616.4,4702.4 M5518.7,4672.4H5738V3368.2h-219.3V4672.4z M5518.7,3128.7H5738V2872h-219.3V3128.7z
		 M4211.5,4027.9c0-299.5,123.1-503.5,367.5-503.5c251.8,0,385.3,196.6,385.3,508.4c0,279.3-133.5,483.3-372.4,483.3
		C4357.9,4516.2,4211.5,4319.5,4211.5,4027.9 M4544.1,3340.7c-344.9,0-558.7,294.6-558.7,682.4c0,385.3,224.2,679.9,578.9,679.9
		c170.9,0,312.4-60.6,390.2-199.1h2.5v168.5h211.3V2872H4949v659.7h-2.5C4863.9,3400.7,4702.8,3340.7,4544.1,3340.7 M3134,4513.7
		c-151.3,0-244.4-85.8-259.1-224.2c-4.9-50.2-7.4-118.2-7.4-206.4v-714.9h-216.8v833.1c0,85.8,4.9,151.3,17.8,199.1
		c47.8,178.9,176.4,302,428.2,302c183.8,0,324.7-75.3,420.2-229.1h2.5v199.1h199.1V3368.2h-219.3v717.3
		C3499.1,4322.6,3388.2,4513.7,3134,4513.7 M1953.6,3015.4v352.2h-191.1v181.3h191.1v808c0,249.3,125.6,324.7,312.4,324.7
		c50.2,0,103.5-4.9,163.6-12.9l-17.8-187.4c-38,2.5-72.9,4.9-103.5,4.9c-100.5,0-138.4-42.9-138.4-140.9v-795.7h242v-181.3h-242
		v-433.1L1953.6,3015.4z M1550.6,3390.9c-12.9-362.6-276.9-553.8-675-553.8c-349.8,0-639.5,191.1-639.5,503.5
		c0,221.7,153.8,340,322.2,405.5c176.4,68,493.7,133.5,626.6,191.1c131.1,55.1,193.6,128.6,193.6,249.3
		c0,213.8-201.5,319.8-450.8,319.8c-204,0-506-83.3-528.6-428.2l-223,9.8c7.4,393.3,304.4,619.3,755.3,619.3
		c365.1,0,684.8-201.5,684.8-533.5c0-231.5-123.1-372.4-335.1-450.8c-131.1-50.2-463.1-123.1-624.2-186.2
		c-90.7-35.5-183.8-95.6-183.8-206.4c0-193.6,168.5-302,405.5-302c256.7,0,425.7,128.6,440.4,370L1550.6,3390.9z"/>
</g>
</svg>
