<?xml version="1.0" encoding="utf-8"?>
<!-- Generator: Adobe Illustrator 19.0.0, SVG Export Plug-In . SVG Version: 6.00 Build 0)  -->
<svg version="1.1" id="Layer_1" xmlns="http://www.w3.org/2000/svg" xmlns:xlink="http://www.w3.org/1999/xlink" x="0px" y="0px"
	 width="6553.8px" height="1800.3px" viewBox="3561.2 -1295.1 6553.8 1800.3"
	 style="enable-background:new 3561.2 -1295.1 6553.8 1800.3;" xml:space="preserve">
<style type="text/css">
	.st0{fill:#FF0000;}
</style>
<g id="XMLID_3_">
	<g id="XMLID_24_">
		<path id="XMLID_26_" class="st0" d="M9571-235.4h-611.9l199.1-543.9c38-103.5,72.9-208.9,100.5-312.4h2.5
			c30,103.5,68,206.4,106,312.4L9571-235.4z M8886.2-38.7h760.2l204,543.9h264.6l-720.4-1800.3H9133L8437.7,505.2H8687L8886.2-38.7z
			 M7931.8-1086.2c226.6,0,370,95.6,370,322.2s-118.2,329.6-410.4,329.6h-465.5v-651.8H7931.8z M7186.9-1295.1V505.2h238.9v-732.6
			h506c417.8,0,614.4-201.5,614.4-541.5c0-261.6-143.3-526.2-616.8-526.2L7186.9-1295.1L7186.9-1295.1z M5416.6-1295.1V505.2h238.9
			v-783.5H6091c246.9,0,365.1,136,410.4,374.9c30,153.8,95.6,335.1,170.9,408h274.4c-103.5-120.7-163.6-310-216.2-483.3
			c-40.4-131.1-98-281.8-238.9-340l-68-27.6c267.1-40.4,410.4-216.2,410.4-460.6c0-292.2-191.1-488.2-601.5-488.2L5416.6-1295.1
			L5416.6-1295.1z M5656.2-481.6v-612h581.3c246.9,0,352.2,113.3,352.2,299.5c0,216.2-133.5,312.4-408,312.4L5656.2-481.6
			L5656.2-481.6z M4694.4-235.4h-611.9l199.1-543.9c38-103.5,72.9-208.9,100.5-312.4h2.5c30,103.5,68,206.4,106,312.4L4694.4-235.4z
			 M4009.6-38.7h760.2l204,543.9h264.6L4518-1295.1h-261.6L3561.2,505.2h249.3L4009.6-38.7z"/>
	</g>
</g>
</svg>
