<?xml version="1.0" encoding="utf-8"?>
<!-- Generator: Adobe Illustrator 19.0.0, SVG Export Plug-In . SVG Version: 6.00 Build 0)  -->
<svg version="1.1" id="Layer_1" xmlns="http://www.w3.org/2000/svg" xmlns:xlink="http://www.w3.org/1999/xlink" x="0px" y="0px"
	 width="6553.8px" height="1800.3px" viewBox="6438.2 -1555.4 6553.8 1800.3"
	 style="enable-background:new 6438.2 -1555.4 6553.8 1800.3;" xml:space="preserve">
<style type="text/css">
	.st0{fill:#FFFFFF;}
</style>
<g id="XMLID_3_">
	<g id="XMLID_24_">
		<path id="XMLID_26_" class="st0" d="M12448-495.7h-611.9l199.1-543.9c38-103.5,72.9-208.9,100.5-312.4h2.5
			c30,103.5,68,206.4,106,312.4L12448-495.7z M11763.2-299h760.2l204,543.9h264.6l-720.4-1800.3H12010l-695.3,1800.3h249.3
			L11763.2-299z M10808.8-1346.5c226.6,0,370,95.6,370,322.2s-118.2,329.6-410.4,329.6h-465.5v-651.8H10808.8z M10063.9-1555.4
			V244.9h238.9v-732.6h506c417.8,0,614.4-201.5,614.4-541.5c0-261.6-143.3-526.2-616.8-526.2H10063.9L10063.9-1555.4z
			 M8293.6-1555.4V244.9h238.9v-783.5H8968c246.9,0,365.1,136,410.4,374.9c30,153.8,95.6,335.1,170.9,408h274.4
			c-103.5-120.7-163.6-310-216.2-483.3c-40.4-131.1-98-281.8-238.9-340l-68-27.6C9567.7-647,9711-822.8,9711-1067.2
			c0-292.2-191.1-488.2-601.5-488.2L8293.6-1555.4L8293.6-1555.4z M8533.2-741.9v-612h581.3c246.9,0,352.2,113.3,352.2,299.5
			c0,216.2-133.5,312.4-408,312.4L8533.2-741.9L8533.2-741.9z M7571.4-495.7h-611.9l199.1-543.9c38-103.5,72.9-208.9,100.5-312.4
			h2.5c30,103.5,68,206.4,106,312.4L7571.4-495.7z M6886.6-299h760.2l204,543.9h264.6L7395-1555.4h-261.6L6438.2,244.9h249.3
			L6886.6-299z"/>
	</g>
</g>
</svg>
